<?xml version="1.0" standalone="no"?>
<!DOCTYPE svg PUBLIC "-//W3C//DTD SVG 20010904//EN"
 "http://www.w3.org/TR/2001/REC-SVG-20010904/DTD/svg10.dtd">
<svg version="1.0" xmlns="http://www.w3.org/2000/svg"
 width="506.000000pt" height="493.000000pt" viewBox="0 0 506.000000 493.000000"
 preserveAspectRatio="xMidYMid meet">

<g transform="translate(0.000000,493.000000) scale(0.100000,-0.100000)"
fill="#000000" stroke="none">
<path d="M3887 4628 c-51 -73 -169 -241 -262 -373 -93 -132 -229 -325 -303
-428 -74 -103 -132 -191 -128 -194 8 -8 34 16 42 39 3 11 12 17 19 14 14 -5
30 20 26 43 -2 9 3 12 13 8 8 -3 18 -1 22 5 4 7 3 8 -4 4 -7 -4 -12 -2 -12 4
0 7 7 10 15 7 8 -4 17 -1 21 5 4 6 3 8 -4 4 -6 -3 -13 -2 -17 4 -3 5 -2 10 3
10 5 0 15 11 22 25 10 18 17 22 24 15 8 -8 7 -13 -2 -19 -7 -4 -12 -12 -10
-17 6 -18 -75 -114 -97 -115 -11 0 -14 -3 -8 -6 13 -5 -6 -41 -39 -75 -20 -20
-22 -36 -8 -58 7 -12 10 -11 17 5 6 16 9 13 14 -20 l6 -40 2 39 c1 31 14 56
67 128 37 49 68 87 70 85 2 -2 4 -16 6 -33 1 -23 -14 -51 -76 -132 -43 -56
-82 -102 -87 -102 -6 0 -7 -5 -4 -10 4 -6 1 -18 -7 -27 -8 -11 -9 -14 -1 -10
9 6 13 -32 15 -159 2 -91 0 -168 -4 -170 -3 -2 -6 -105 -7 -229 0 -124 -2
-229 -5 -233 -9 -15 -15 -513 -5 -507 5 4 9 30 9 60 0 53 1 55 88 159 48 58
90 105 93 106 4 0 5 -23 4 -51 -2 -36 0 -48 8 -40 6 6 10 35 8 64 -2 50 0 57
46 112 26 32 66 78 88 102 l40 44 2 -48 c2 -44 -1 -52 -48 -105 -55 -64 -57
-81 -2 -21 l34 38 -38 -52 c-20 -29 -41 -53 -46 -53 -4 0 -5 5 -1 12 5 7 3 8
-5 4 -7 -5 -10 -14 -7 -22 3 -8 0 -11 -10 -7 -10 4 -12 0 -7 -13 4 -11 3 -15
-4 -11 -6 4 -14 0 -17 -9 -4 -10 -2 -13 7 -8 6 4 -3 -7 -20 -24 -18 -17 -33
-35 -33 -40 0 -4 -14 -21 -31 -38 -24 -23 -29 -25 -23 -9 4 11 5 18 3 15 -35
-41 -43 -54 -26 -41 9 7 17 9 17 3 0 -14 -26 -33 -34 -25 -4 4 -5 1 -2 -7 3
-9 -15 -37 -44 -70 -27 -30 -48 -60 -45 -67 2 -7 -1 -10 -8 -7 -20 7 -18 -224
2 -248 8 -10 19 -18 23 -18 5 0 8 54 8 121 l0 121 63 71 c34 39 72 82 83 95
l22 24 1 -123 1 -124 -52 -57 c-63 -68 -118 -134 -118 -142 0 -19 27 4 95 80
l77 86 -4 -145 c-3 -158 -6 -152 47 -87 l20 25 -21 -17 c-11 -10 -24 -18 -28
-18 -4 0 -6 31 -5 69 2 38 6 69 10 68 3 -1 46 42 94 96 48 54 89 96 91 94 2
-2 6 -27 8 -56 5 -57 2 -63 -113 -184 -25 -26 -41 -47 -36 -47 6 0 28 20 49
45 22 24 43 42 48 39 5 -3 -7 -22 -26 -42 -62 -67 -136 -155 -136 -162 0 -3
12 -17 26 -31 l26 -24 92 98 93 98 2 -63 c0 -35 4 -97 7 -139 5 -71 4 -78 -21
-107 -26 -31 -27 -56 -2 -46 7 2 18 -7 24 -23 11 -27 11 -27 13 15 1 23 3 46
4 51 1 14 49 57 58 54 5 -2 7 3 5 10 -1 6 5 11 13 9 8 -2 12 0 7 4 -4 4 3 18
15 31 22 24 45 32 32 11 -4 -7 -3 -8 4 -4 6 4 9 13 6 20 -3 8 5 21 18 30 13 9
22 19 21 21 -2 3 0 5 5 6 4 0 11 10 15 21 12 34 25 9 33 -64 l7 -66 -44 -43
c-24 -24 -47 -42 -51 -41 -5 1 -8 -4 -8 -11 0 -6 -23 -34 -50 -61 -28 -27 -48
-52 -44 -55 3 -3 48 39 99 94 104 111 97 111 109 0 7 -54 8 -52 -82 -147 -20
-21 -33 -41 -29 -44 3 -4 19 7 34 23 15 16 36 34 46 39 10 6 20 19 21 30 2 10
8 20 14 20 7 1 19 2 27 3 9 1 12 7 8 18 -5 12 -3 14 7 8 10 -6 12 -4 7 9 -4
10 -3 15 3 11 6 -3 10 -11 10 -16 0 -16 -103 -119 -112 -113 -5 3 -7 1 -6 -4
2 -5 -7 -19 -19 -30 l-23 -19 56 -53 c44 -41 58 -50 65 -39 5 8 9 10 10 4 0
-5 4 -1 9 10 6 14 8 8 6 -22 -3 -37 1 -46 32 -75 l35 -33 -6 83 c-3 48 -1 80
4 76 5 -3 9 0 9 6 0 12 112 127 150 153 14 10 18 15 10 11 -10 -5 -9 0 4 14
11 12 25 22 33 22 7 0 13 5 13 12 0 37 14 -16 35 -133 l25 -134 -95 -93 c-60
-59 -92 -98 -88 -108 5 -13 14 -17 30 -11 5 1 7 4 6 7 0 3 5 11 13 18 8 7 14
9 14 5 0 -4 5 -1 10 7 8 13 12 13 32 1 20 -13 22 -12 11 1 -7 8 -9 19 -5 23 4
5 0 4 -8 0 -8 -5 -1 7 15 26 17 20 31 35 33 33 2 -1 13 -69 23 -151 13 -92 26
-154 35 -163 12 -13 13 -7 8 46 l-6 60 162 152 c89 84 165 152 169 152 4 0 13
-35 20 -78 8 -42 15 -89 18 -103 4 -22 -14 -43 -146 -164 l-151 -139 27 -17
c15 -10 30 -16 35 -13 4 3 5 -2 2 -10 -4 -10 31 -51 106 -123 106 -103 143
-133 124 -102 -6 11 -5 12 8 2 8 -7 19 -9 23 -5 5 4 5 1 1 -6 -4 -7 -12 -10
-17 -7 -5 3 -6 -1 -3 -9 3 -9 11 -16 17 -16 6 0 8 3 4 6 -3 3 6 17 21 31 20
19 23 26 13 32 -7 5 -12 14 -10 20 2 6 16 1 34 -13 27 -22 28 -24 12 -40 -9
-10 -17 -15 -17 -11 0 3 -6 0 -14 -7 -16 -15 -10 -32 9 -24 14 5 14 -18 0 -31
-4 -4 -5 -2 0 6 5 9 4 12 -3 7 -7 -4 -12 -2 -12 4 0 6 -4 9 -10 5 -11 -7 12
-31 55 -59 24 -16 27 -16 16 -3 -9 11 -10 17 -2 17 6 0 12 -6 12 -12 1 -7 2
-18 3 -24 2 -14 39 -55 134 -149 l82 -80 -2 675 c-2 531 -6 675 -15 676 -7 1
-18 2 -24 3 -5 0 -7 6 -4 11 3 6 1 10 -5 10 -6 0 -8 5 -4 12 6 10 5 10 -7 1
-12 -10 -23 -7 -57 16 l-43 28 33 11 c33 11 33 12 3 7 -25 -4 -27 -3 -12 5 10
7 27 8 40 4 12 -5 25 -8 29 -9 3 0 10 -3 14 -8 4 -4 -8 -7 -27 -8 -27 0 -30
-2 -14 -8 11 -5 24 -6 28 -4 5 3 15 -5 24 -16 12 -17 18 -20 29 -10 11 9 14
51 14 208 l0 196 -88 48 c-102 56 -116 64 -162 98 -19 14 -49 32 -67 40 -36
15 -49 48 -37 93 5 20 2 31 -12 41 -18 14 -18 14 1 9 34 -10 170 -100 168
-112 -2 -6 4 -9 11 -6 18 7 178 -94 170 -107 -3 -5 0 -9 5 -9 8 0 11 87 11
273 l0 272 -48 27 c-108 63 -125 80 -148 145 l-21 62 21 -20 c29 -28 199 -133
195 -120 -2 6 -49 39 -103 73 -60 38 -106 75 -116 93 -21 38 -31 87 -16 78 6
-4 59 -38 118 -75 59 -37 110 -68 113 -68 3 0 5 6 5 13 0 6 -59 48 -130 92
-116 71 -131 84 -144 120 -20 53 -46 145 -41 145 2 0 59 -35 126 -78 l122 -79
33 -89 34 -89 -2 118 c-1 110 -3 119 -22 127 -40 17 -106 67 -99 75 5 4 2 5
-4 1 -13 -7 -87 37 -78 46 3 2 -1 5 -8 5 -19 0 -68 34 -62 43 3 4 -3 7 -13 6
-9 0 -16 4 -15 10 1 7 -5 11 -15 10 -9 0 -16 5 -14 12 1 8 -2 11 -8 7 -13 -8
-80 32 -80 47 0 6 -3 8 -6 5 -11 -10 -45 13 -38 25 4 6 3 9 -2 5 -13 -8 -86
38 -76 48 4 4 2 5 -5 2 -6 -4 -17 -1 -25 6 -7 7 -16 14 -21 15 -18 4 -64 32
-78 48 -18 20 -29 58 -84 285 -40 168 -41 174 -16 136 10 -16 74 -66 143 -112
l124 -83 22 -78 c12 -43 20 -79 19 -80 -1 -1 -60 36 -132 81 -71 46 -132 79
-134 74 -4 -13 -20 -1 141 -103 75 -48 141 -93 146 -99 12 -16 32 -77 25 -77
-3 0 -36 19 -72 43 -124 81 -116 69 14 -20 59 -42 71 -55 86 -98 27 -77 22
-30 -6 60 -14 44 -25 81 -25 82 0 0 65 -41 144 -93 125 -82 145 -100 159 -134
8 -22 14 -40 12 -40 -8 0 -113 64 -172 106 -35 24 -73 48 -85 54 -22 11 -23
11 -3 -5 11 -9 77 -53 147 -98 114 -74 128 -86 139 -122 7 -22 13 -44 13 -49
1 -5 11 -12 24 -17 21 -8 21 -7 7 15 -9 13 -33 72 -54 132 -22 60 -55 152 -74
206 -20 53 -33 98 -30 101 4 5 -246 173 -524 353 -71 46 -83 59 -92 91 -5 21
-23 90 -40 154 -34 127 -36 139 -21 139 6 0 10 -6 10 -13 0 -7 52 -46 115 -87
l115 -75 20 -64 c11 -35 19 -65 18 -66 -2 -2 -56 32 -120 75 -65 43 -118 73
-118 67 0 -7 58 -50 130 -96 99 -65 131 -91 140 -114 13 -38 13 -40 -2 -32 -7
4 -5 0 5 -8 9 -8 17 -20 17 -27 0 -7 3 -11 6 -7 3 3 -1 26 -9 51 l-16 45 135
-89 c129 -87 135 -93 150 -150 0 -3 8 -22 17 -42 10 -21 17 -42 17 -47 0 -5 6
-11 13 -14 7 -3 -15 69 -51 166 -35 94 -64 179 -65 189 -1 12 -93 79 -270 195
-158 105 -274 188 -282 203 -23 41 -17 7 29 -179 55 -215 103 -415 176 -726
11 -49 28 -118 37 -153 8 -35 13 -74 10 -87 -2 -15 0 -22 6 -18 6 4 8 0 4 -11
-4 -10 -3 -15 3 -11 6 3 11 -4 12 -17 2 -37 5 -52 10 -68 12 -32 29 -102 33
-130 2 -16 7 -35 11 -42 5 -7 -5 -2 -21 10 -29 23 -59 87 -50 109 2 7 -1 15
-6 19 -6 3 -9 15 -6 25 3 11 2 19 -3 19 -4 0 -15 37 -24 83 -8 45 -29 140 -46
212 -35 151 -33 138 -17 129 6 -4 4 1 -5 12 -10 11 -33 88 -53 179 -20 88 -40
171 -45 185 -6 14 -11 41 -12 60 -1 19 -5 40 -9 45 -6 8 -41 141 -55 210 -2
11 -20 83 -40 160 -19 77 -36 146 -36 153 -1 6 -5 12 -10 12 -4 0 -7 8 -6 18
3 40 -3 62 -17 62 -18 0 -20 17 -3 22 7 3 9 12 5 22 -6 16 -10 16 -24 5 -14
-12 -15 -11 -8 10 5 16 4 21 -3 17 -7 -4 -9 2 -7 15 4 20 21 39 35 39 3 0 19
-13 36 -28 17 -15 81 -60 142 -101 61 -41 108 -79 105 -84 -3 -6 -1 -7 5 -3 7
4 60 -27 121 -69 78 -54 111 -82 115 -101 4 -15 9 -24 12 -22 2 3 0 17 -5 31
-7 18 -7 28 1 33 7 4 8 3 4 -4 -3 -6 2 -15 12 -21 14 -8 19 -6 19 5 0 8 -34
38 -76 66 -42 28 -131 89 -198 135 -71 49 -128 81 -134 77 -7 -4 -9 -3 -5 4 4
6 -30 36 -84 73 -49 35 -90 69 -90 76 0 7 -7 13 -15 13 -8 0 -15 -5 -15 -11 0
-5 5 -7 12 -3 6 4 -3 -14 -21 -40 -18 -26 -29 -52 -25 -59 5 -9 4 -9 -5 -1
-10 9 -9 17 4 38 10 14 14 26 11 26 -4 0 0 14 9 30 9 17 20 30 25 30 5 0 7 14
3 32 -7 37 -16 41 127 -62 58 -42 169 -121 248 -176 79 -54 153 -106 164 -114
13 -9 20 -10 17 -3 -4 11 -552 403 -563 403 -3 0 -47 -60 -99 -132z m23 -70
c0 -6 -6 -5 -15 2 -8 7 -15 14 -15 16 0 2 7 1 15 -2 8 -4 15 -11 15 -16z m-27
-31 c7 3 8 2 4 -2 -14 -16 -36 -14 -29 3 4 10 7 12 10 4 2 -7 9 -9 15 -5z
m102 -38 c-5 -23 -73 -122 -91 -132 -8 -4 -14 -13 -14 -20 0 -7 -11 -25 -25
-41 -17 -20 -25 -24 -25 -13 0 8 -2 22 -5 29 -8 20 145 224 155 207 5 -7 7
-20 5 -30z m-75 17 c0 -2 -8 -10 -17 -17 -16 -13 -17 -12 -4 4 13 16 21 21 21
13z m-126 -104 c3 -5 -1 -9 -9 -9 -8 0 -12 4 -9 9 3 4 7 8 9 8 2 0 6 -4 9 -8z
m-30 -38 c3 -8 2 -12 -4 -9 -6 3 -10 10 -10 16 0 14 7 11 14 -7z m21 -24 c-3
-5 -12 -10 -18 -10 -7 0 -6 4 3 10 19 12 23 12 15 0z m-69 -15 c-1 -8 -5 -17
-8 -21 -5 -4 -4 16 1 34 3 9 9 -1 7 -13z m111 -21 c-3 -3 -2 -16 3 -28 6 -18
2 -30 -22 -57 -17 -19 -49 -61 -72 -94 -35 -51 -41 -57 -44 -37 -2 12 -7 22
-12 22 -5 0 -5 -13 0 -29 6 -24 3 -34 -24 -64 -17 -19 -47 -58 -66 -86 -19
-28 -38 -51 -42 -51 -5 0 -8 13 -8 29 0 29 29 74 195 294 44 59 84 107 89 107
5 0 7 -3 3 -6z m253 -29 c14 -19 14 -19 -2 -6 -10 7 -18 18 -18 24 0 6 1 8 3
6 1 -2 9 -13 17 -24z m-349 -2 c13 -16 12 -17 -3 -4 -17 13 -22 21 -14 21 2 0
10 -8 17 -17z m305 -38 c-9 -9 -16 -21 -16 -26 0 -5 -6 -9 -14 -9 -8 0 -18
-10 -22 -22 -4 -13 -27 -50 -52 -82 -39 -50 -47 -56 -53 -40 -8 22 -2 37 12
28 5 -3 8 -1 7 4 -4 15 42 73 52 67 6 -4 7 1 3 11 -4 12 -3 15 5 10 8 -4 10
-2 6 8 -6 16 28 39 42 28 5 -4 4 0 -3 7 -9 11 -8 19 5 37 14 19 19 20 31 9 12
-12 11 -16 -3 -30z m21 -32 c0 -15 -7 -40 -18 -54 -10 -15 -19 -32 -19 -38 0
-7 -7 -14 -15 -17 -8 -4 -15 -12 -15 -18 0 -7 -16 -27 -35 -46 -18 -18 -33
-38 -32 -44 1 -6 -4 -10 -10 -8 -7 1 -13 -3 -13 -9 0 -5 -4 -7 -10 -4 -24 15
-5 55 72 157 45 59 84 108 87 108 3 0 7 -12 8 -27z m-411 8 c-4 -5 -1 -11 5
-13 8 -3 6 -10 -5 -21 -10 -9 -15 -20 -12 -25 2 -4 -4 -8 -14 -9 -19 -2 -19
-1 0 20 25 26 26 44 3 26 -15 -11 -14 -10 1 9 19 22 32 30 22 13z m541 -63
c-3 -8 -6 -5 -6 6 -1 11 2 17 5 13 3 -3 4 -12 1 -19z m-578 -24 c6 4 11 5 11
2 0 -3 -12 -12 -26 -19 -17 -9 -23 -17 -15 -21 6 -4 11 -2 11 3 0 6 5 11 12
11 9 0 9 -3 0 -12 -7 -7 -18 -13 -25 -13 -7 0 -12 -9 -12 -20 -1 -11 -6 -19
-13 -18 -6 2 -9 -3 -6 -11 6 -17 -22 -40 -37 -30 -9 5 -10 1 -6 -15 3 -14 0
-24 -9 -28 -8 -3 -12 -9 -9 -13 6 -9 -12 -23 -32 -26 -7 -1 -13 2 -13 7 0 6
-5 7 -12 3 -7 -4 -8 -3 -4 5 4 6 11 9 16 6 5 -3 18 12 29 34 21 40 41 61 41
42 0 -6 4 -11 9 -11 4 0 8 10 7 23 -1 12 8 31 19 42 24 23 24 23 32 53 4 16 8
20 13 12 4 -7 13 -9 19 -6z m201 -94 c-34 -45 -64 -79 -67 -77 -2 3 24 44 59
91 35 46 64 81 66 76 2 -5 -24 -46 -58 -90z m54 -3 c3 -19 0 -27 -10 -27 -8 0
-13 -3 -12 -7 5 -14 -28 -53 -37 -45 -5 4 -6 2 -2 -4 3 -5 -9 -27 -28 -47 -19
-20 -31 -37 -28 -37 3 0 0 -7 -7 -15 -7 -8 -16 -15 -20 -15 -12 0 -6 26 10 46
13 16 13 17 0 10 -8 -4 -3 3 11 17 14 13 28 28 30 33 6 14 83 123 86 121 1 -2
4 -15 7 -30z m17 -81 c5 -5 -1 -17 -13 -28 -12 -10 -18 -18 -15 -18 4 0 -1 -8
-10 -19 -10 -10 -29 -33 -43 -51 -14 -17 -30 -37 -36 -44 -5 -6 -13 -19 -17
-28 -11 -29 -27 -20 -27 15 0 32 19 63 110 176 28 35 36 40 38 25 2 -11 8 -23
13 -28z m203 9 c-9 -14 -18 -25 -21 -25 -5 0 5 18 20 38 17 22 18 13 1 -13z
m-374 -35 c0 -15 -93 -154 -126 -189 -2 -2 -4 9 -4 25 0 20 19 54 57 107 32
42 61 77 65 77 4 0 8 -9 8 -20z m-178 -36 c1 -23 -12 -48 -60 -112 -35 -45
-65 -82 -67 -82 -3 0 -5 15 -5 33 0 23 17 54 62 115 33 45 62 81 64 79 2 -2 4
-17 6 -33z m-86 15 c3 -6 0 -15 -7 -20 -8 -4 -14 -12 -14 -16 0 -4 -7 -18 -16
-31 -13 -19 -18 -20 -22 -8 -4 9 1 20 11 25 16 10 16 10 0 11 -15 0 -14 3 5
24 25 28 33 30 43 15z m1141 -58 c91 -58 101 -67 116 -111 9 -26 17 -50 17
-54 0 -3 -51 28 -112 68 -62 41 -112 77 -110 80 1 4 -5 22 -13 42 -24 58 -30
60 102 -25z m-477 45 c0 -17 -38 -28 -47 -14 -4 7 -1 8 7 3 9 -6 12 -4 8 6 -4
10 1 15 13 16 10 1 19 -4 19 -11z m-3 -34 l23 21 9 -24 c7 -18 4 -32 -10 -55
-10 -17 -15 -34 -11 -38 4 -4 0 -6 -8 -4 -8 2 -14 -3 -12 -10 1 -8 -1 -11 -6
-8 -12 7 -73 -79 -64 -89 4 -5 2 -5 -4 -2 -12 7 -51 -41 -46 -55 3 -11 -22 -5
-30 7 -18 23 -4 53 63 137 57 72 68 92 58 104 -6 8 -16 14 -22 14 -7 0 -7 -4
1 -12 7 -7 12 -19 11 -27 0 -11 -3 -10 -9 4 -7 17 -9 17 -9 3 -1 -10 -7 -18
-15 -18 -8 0 -16 -7 -20 -15 -3 -8 -1 -15 3 -15 5 0 12 6 14 13 4 8 6 8 6 0 1
-6 -10 -20 -24 -31 -14 -11 -25 -26 -25 -33 0 -10 -4 -9 -16 3 -16 15 -16 18
0 33 9 9 16 21 16 26 0 6 4 7 10 4 5 -3 12 6 16 21 5 19 9 22 15 12 7 -10 9
-10 10 0 1 6 3 17 4 22 1 6 3 16 4 22 0 7 10 3 23 -10 l22 -22 23 22z m-107
-6 c0 -2 -8 -10 -17 -17 -16 -13 -17 -12 -4 4 13 16 21 21 21 13z m-302 -13
c-4 -18 15 -103 23 -103 5 0 1 -9 -8 -19 -22 -23 -54 -63 -68 -83 -72 -106
-85 -116 -85 -64 0 26 16 54 72 127 39 52 64 88 55 80 -9 -7 -40 -44 -68 -82
-28 -38 -53 -69 -55 -69 -2 0 -4 12 -4 28 0 17 13 41 35 65 19 21 35 41 35 44
0 7 60 83 66 83 2 0 3 -3 2 -7z m232 -59 c0 -14 -121 -177 -141 -189 -5 -4 -9
2 -9 13 0 20 127 192 141 192 5 0 9 -7 9 -16z m-380 -62 c0 -13 -27 -60 -62
-107 l-63 -83 -3 40 c-3 43 33 112 53 101 5 -4 7 -3 3 2 -4 4 7 27 24 51 33
46 48 44 48 -4z m-265 -2 c-3 -5 -12 -10 -18 -10 -7 0 -6 4 3 10 19 12 23 12
15 0z m680 -9 c0 -8 -7 -16 -15 -19 -8 -3 -12 -1 -8 3 4 5 2 15 -4 23 -10 12
-9 14 7 11 11 -3 20 -11 20 -18z m-49 -43 c-1 -24 -6 -32 -23 -34 -25 -4 -26
-3 -17 20 3 9 14 16 23 17 10 0 11 2 3 6 -6 2 -10 9 -6 14 11 18 20 8 20 -23z
m-367 -79 c1 -28 4 -55 6 -59 5 -9 -64 -100 -76 -100 -5 0 -8 -3 -6 -8 1 -4
-12 -27 -30 -51 l-32 -44 -7 29 c-5 18 -2 37 9 56 10 18 12 27 4 25 -27 -5 -2
52 57 130 33 44 64 79 67 77 3 -2 7 -26 8 -55z m351 30 c0 -4 -7 -12 -15 -19
-14 -12 -20 -7 -15 15 1 6 -2 6 -7 2 -4 -5 -8 -21 -8 -35 0 -20 -5 -27 -20
-27 -11 0 -20 -7 -20 -15 -1 -8 -7 -14 -15 -12 -11 2 -11 0 -1 -11 9 -12 8
-16 -4 -21 -8 -3 -14 -11 -13 -18 2 -7 -3 -12 -10 -10 -8 1 -11 -2 -6 -9 4 -8
3 -9 -4 -5 -16 10 -15 53 1 63 7 4 29 31 50 59 29 40 43 52 62 50 14 0 25 -4
25 -7z m30 -28 c0 -28 -8 -49 -26 -70 -14 -17 -23 -31 -19 -31 4 0 -3 -9 -16
-21 -13 -11 -17 -17 -9 -13 8 4 -2 -9 -23 -29 -25 -23 -36 -41 -31 -49 4 -7 4
-10 -1 -6 -11 11 -36 -12 -28 -25 3 -6 1 -7 -5 -3 -19 11 -14 75 8 106 11 15
16 31 12 35 -4 5 -1 5 6 1 6 -4 13 -2 13 3 2 12 5 26 9 39 1 4 2 11 1 15 -1 5
3 6 9 2 8 -5 7 -11 -1 -21 -6 -8 -9 -14 -7 -14 3 0 26 27 52 60 26 33 49 60
52 60 2 0 4 -18 4 -39z m-541 -43 c0 -62 0 -64 -64 -147 l-65 -83 0 62 c0 59
3 67 42 119 23 31 45 58 48 61 4 3 12 15 19 28 6 12 13 22 15 22 2 0 4 -28 5
-62z m351 -23 c-4 -5 -33 -43 -66 -84 l-59 -75 -3 32 c-3 33 1 42 82 152 l41
55 5 -35 c4 -19 3 -39 0 -45z m434 53 c-5 -8 -2 -9 11 -4 18 7 18 6 0 -14 -10
-11 -20 -18 -23 -15 -3 2 -12 -10 -21 -28 -9 -17 -22 -31 -28 -30 -7 2 -10 -3
-8 -10 2 -6 -14 -32 -37 -57 -35 -38 -40 -41 -35 -20 4 14 7 29 7 34 0 4 7 6
14 3 9 -4 13 -1 11 6 -3 7 8 26 23 43 15 17 40 48 56 68 27 34 45 49 30 24z
m588 -159 c65 -42 68 -47 92 -116 l24 -72 -81 53 c-153 98 -165 107 -170 129
-3 12 -12 43 -21 70 l-15 47 52 -33 c29 -19 82 -53 119 -78z m-1022 23 c0 -19
-11 -39 -30 -58 -16 -16 -30 -35 -30 -42 0 -7 -5 -10 -12 -6 -6 4 -8 3 -5 -3
3 -5 -9 -27 -28 -49 -19 -21 -35 -42 -35 -46 0 -5 -4 -8 -10 -8 -20 0 -10 58
13 77 13 10 24 22 24 27 0 15 26 45 35 40 4 -3 8 2 8 11 0 17 50 85 63 85 4 0
7 -13 7 -28z m-367 -65 c-16 -19 -16 -20 0 -8 15 12 17 11 18 -5 0 -11 2 -27
4 -36 2 -10 -1 -18 -6 -18 -5 0 -8 -4 -6 -8 1 -5 -29 -49 -68 -98 l-70 -89 -3
38 c-2 27 2 46 15 60 12 14 13 18 2 10 -13 -11 -15 -8 -11 20 3 19 31 67 71
120 59 78 66 85 69 61 2 -15 -4 -35 -15 -47z m855 16 c8 -33 7 -45 -4 -54 -8
-6 -11 -16 -8 -21 4 -6 10 -5 16 3 8 11 9 11 5 -1 -2 -8 -11 -14 -19 -12 -21
3 -121 -115 -114 -134 3 -8 2 -12 -4 -9 -6 3 -23 -8 -40 -26 -33 -37 -39 -36
-46 13 -5 27 -1 40 21 66 22 27 25 35 15 47 -10 13 -16 13 -29 3 -14 -12 -14
-11 -2 4 7 10 18 15 24 11 7 -4 8 0 3 12 -5 15 -4 16 9 5 14 -11 19 -7 16 12
0 4 8 5 19 3 14 -3 34 14 72 60 29 35 54 63 55 62 1 -2 6 -21 11 -44z m-38 34
c0 -2 -10 -12 -22 -23 l-23 -19 19 23 c18 21 26 27 26 19z m-621 -92 c1 -23
-15 -50 -66 -114 l-68 -83 -3 56 c-3 56 -2 58 60 138 58 74 63 79 69 57 4 -13
7 -38 8 -54z m176 -23 c-5 -27 -9 -32 -16 -21 -7 11 -9 9 -9 -8 0 -12 -9 -28
-20 -36 -11 -8 -17 -17 -12 -21 4 -4 0 -6 -8 -4 -9 2 -22 -12 -33 -34 -10 -20
-27 -40 -37 -43 -11 -4 -17 -12 -13 -21 3 -7 1 -14 -4 -14 -5 0 -10 20 -12 44
-2 41 3 50 81 147 78 98 83 102 86 75 2 -16 1 -45 -3 -64z m249 62 c4 -10 2
-13 -7 -8 -9 5 -9 4 0 -6 11 -12 7 -39 -7 -50 -3 -3 -23 -26 -44 -52 -21 -26
-43 -45 -49 -41 -5 3 -7 1 -4 -4 4 -6 -7 -28 -23 -48 l-30 -38 0 45 c0 44 18
76 35 60 5 -4 5 2 1 12 -7 20 -7 20 15 0 l22 -19 -14 23 c-13 21 -12 25 10 43
13 10 19 19 15 19 -5 0 -4 4 1 8 6 4 21 22 34 40 25 36 36 40 45 16z m90 -20
c5 -14 4 -15 -9 -4 -17 14 -19 20 -6 20 5 0 12 -7 15 -16z m431 -148 c39 -25
93 -59 121 -75 28 -17 57 -38 65 -48 17 -20 74 -202 65 -210 -2 -3 -20 6 -38
20 -18 13 -57 37 -85 53 -29 16 -53 32 -53 37 0 4 -4 7 -9 7 -20 0 -101 62
-102 78 -1 10 -4 7 -9 -8 -8 -29 -13 -22 -30 57 -7 29 -8 57 -4 64 4 7 3 9 -3
6 -6 -4 -15 15 -21 46 -6 28 -14 61 -18 72 -4 11 6 3 22 -17 16 -21 61 -58 99
-82z m-305 80 c0 -2 -8 -10 -17 -17 -16 -13 -17 -12 -4 4 13 16 21 21 21 13z
m-641 -107 c1 -40 2 -75 3 -78 2 -20 -3 -31 -12 -26 -5 3 -12 -5 -16 -19 -3
-13 -16 -33 -27 -43 l-22 -18 20 25 20 25 -22 -19 c-13 -10 -20 -23 -17 -27 3
-5 -12 -25 -33 -45 -21 -20 -32 -33 -24 -29 9 6 12 4 7 -3 -16 -27 -36 -12
-36 27 0 34 10 51 68 123 72 88 86 108 78 108 -3 0 -25 -26 -49 -57 -25 -32
-57 -71 -71 -88 l-26 -30 0 33 c0 26 14 52 63 113 34 43 65 79 70 79 4 0 7 7
7 16 0 8 4 13 8 10 5 -3 10 -38 11 -77z m408 75 c-3 -4 -2 -15 4 -26 8 -15 7
-23 -8 -35 -17 -14 -17 -14 0 -9 12 4 17 2 15 -6 -2 -6 -12 -12 -22 -14 -22
-3 -34 -14 -16 -14 7 0 1 -12 -14 -26 -14 -15 -26 -31 -26 -36 0 -6 -7 -8 -14
-5 -10 4 -13 1 -10 -7 3 -8 0 -17 -7 -22 -9 -5 -10 -2 -6 10 6 14 3 17 -9 12
-8 -3 -19 -6 -22 -6 -4 0 -1 -4 6 -9 10 -6 10 -10 -3 -21 -13 -11 -15 -10 -12
11 2 12 9 25 15 27 6 2 10 9 8 15 -1 7 -1 9 1 5 8 -15 21 -8 19 9 0 10 5 18
13 18 8 0 16 6 19 13 2 8 -3 10 -15 6 -11 -3 -8 2 10 16 15 12 24 27 21 32 -4
7 -2 8 5 4 6 -4 9 -12 6 -17 -4 -5 -2 -9 3 -9 14 0 35 47 29 63 -5 14 0 27 11
27 3 0 2 -3 -1 -6z m43 -14 c0 -5 -4 -10 -10 -10 -5 0 -10 5 -10 10 0 6 5 10
10 10 6 0 10 -4 10 -10z m-625 -81 c5 -63 4 -66 -35 -118 -103 -137 -108 -139
-102 -43 5 77 5 77 66 154 33 42 62 76 63 74 2 -1 5 -32 8 -67z m397 -26 c4
-42 1 -52 -26 -84 -17 -20 -41 -49 -53 -65 -12 -16 -35 -45 -52 -64 l-30 -35
-1 61 c0 57 3 64 38 105 21 24 53 63 71 87 18 23 36 42 41 42 4 0 10 -21 12
-47z m208 -29 l5 -49 18 25 c9 13 17 20 17 14 0 -13 -45 -56 -52 -49 -2 3 -13
-5 -24 -17 -12 -14 -14 -19 -4 -13 8 4 -2 -7 -22 -24 -21 -18 -38 -37 -38 -43
0 -6 6 -6 15 2 13 11 14 10 9 -4 -4 -10 -12 -15 -19 -12 -7 2 -27 -13 -44 -35
-45 -55 -54 -51 -49 26 3 36 2 65 -1 65 -10 0 -6 49 4 57 4 5 5 3 2 -4 -11
-18 16 -22 36 -5 10 9 17 10 17 4 0 -6 -8 -17 -18 -24 -10 -7 -22 -22 -26 -33
-6 -18 -5 -18 7 -5 57 60 137 162 132 169 -3 5 3 8 12 7 14 -2 19 -15 23 -52z
m286 -31 c18 -24 17 -29 -8 -53 -12 -11 -18 -20 -14 -20 4 0 0 -8 -10 -17 -10
-10 -21 -18 -26 -18 -13 0 -28 -28 -21 -39 3 -5 1 -6 -5 -2 -7 4 -12 1 -12 -7
0 -23 -28 -41 -43 -28 -11 8 -13 4 -9 -22 5 -35 -6 -33 -13 2 -2 11 -7 27 -11
34 -4 6 -3 9 1 4 5 -4 17 1 28 10 19 17 20 17 14 1 -3 -10 -2 -20 2 -22 7 -5
8 12 2 47 0 5 -7 5 -13 1 -9 -5 -9 -3 1 9 13 17 36 14 26 -4 -4 -5 -1 -9 5 -9
7 0 9 8 5 21 -5 14 0 26 15 39 12 10 22 22 23 27 1 4 5 7 9 6 3 -1 11 11 17
27 12 35 19 37 37 13z m-914 -127 c-16 -17 -46 -53 -66 -81 l-38 -50 38 45
c22 24 51 58 65 74 l27 30 3 -47 c3 -35 -1 -53 -14 -69 -10 -13 -16 -17 -12
-10 10 19 0 14 -21 -10 -12 -14 -14 -19 -4 -14 8 5 2 -4 -15 -19 -16 -14 -29
-27 -27 -28 2 -1 0 -10 -3 -19 -4 -10 -11 -16 -15 -13 -5 3 -11 -4 -15 -15 -3
-11 -11 -20 -16 -20 -5 0 -9 -6 -9 -14 0 -8 -4 -17 -8 -20 -5 -3 -10 18 -11
46 -2 41 2 56 21 76 13 15 15 20 6 13 -16 -12 -18 -10 -18 21 0 27 12 50 55
104 31 38 60 71 65 72 6 2 10 9 10 16 0 7 6 18 13 25 10 10 13 5 15 -25 3 -29
-2 -43 -26 -68z m1305 -53 c121 -75 122 -76 137 -126 8 -28 14 -53 12 -55 -2
-1 -30 15 -62 36 -33 21 -81 52 -109 68 -27 15 -51 32 -53 36 -2 4 -10 8 -18
8 -8 0 -14 3 -14 8 0 8 -61 38 -72 34 -5 -1 -8 1 -8 6 -1 4 -7 33 -14 64 l-14
57 47 -30 c25 -16 101 -64 168 -106z m-899 105 c1 -7 6 -49 12 -93 6 -44 12
-85 15 -92 2 -7 -1 -15 -7 -19 -7 -4 -8 -3 -4 4 4 7 2 12 -3 12 -6 0 -11 -7
-11 -15 0 -8 -7 -15 -16 -15 -11 0 -15 -6 -11 -20 3 -10 2 -19 -2 -18 -20 2
-30 -4 -25 -16 3 -8 0 -17 -7 -22 -8 -5 -10 -3 -4 7 5 8 -1 5 -13 -5 -24 -20
-30 -42 -9 -30 8 5 8 3 -2 -9 -7 -9 -17 -15 -21 -12 -4 2 -17 -6 -29 -19 -12
-13 -18 -25 -13 -27 5 -2 -5 -17 -21 -34 -17 -16 -23 -20 -12 -7 14 17 18 36
16 80 l-2 58 86 102 c47 57 85 107 85 113 0 5 -21 -16 -47 -48 -68 -83 -97
-113 -89 -89 6 16 4 17 -9 6 -13 -11 -13 -15 -3 -21 10 -7 9 -12 -4 -26 -17
-16 -18 -15 -18 27 0 54 13 81 31 63 9 -9 17 -8 35 4 22 14 22 16 8 39 -15 22
-14 24 15 42 17 10 28 21 25 25 -6 6 36 65 47 66 3 1 6 -5 7 -11z m177 -18
c-3 -5 -12 -10 -18 -10 -7 0 -6 4 3 10 19 12 23 12 15 0z m-364 -47 c0 -16 3
-41 5 -56 5 -31 -7 -51 -103 -165 l-53 -62 0 76 c0 69 3 80 31 120 18 24 36
41 41 38 5 -3 7 -2 6 3 -4 13 44 73 59 73 7 0 13 -12 14 -27z m708 -63 c-34
-30 -42 -24 -11 8 15 16 29 25 30 20 2 -5 -6 -18 -19 -28z m362 -71 c79 -50
152 -96 162 -103 10 -6 22 -28 28 -49 5 -21 13 -45 16 -54 5 -13 3 -13 -24 1
-17 8 -34 12 -38 8 -5 -4 -6 -2 -2 3 6 12 -150 111 -170 109 -7 -1 -11 1 -8 5
2 4 -18 21 -45 37 -35 21 -54 40 -65 67 -17 42 -19 67 -7 67 5 0 73 -41 153
-91z m-988 45 c-23 -16 -41 -1 -23 21 10 12 16 13 26 4 12 -10 11 -14 -3 -25z
m383 27 c-4 -5 -2 -11 4 -13 6 -2 12 -22 14 -45 4 -32 0 -45 -16 -60 -11 -10
-23 -16 -26 -13 -3 3 -6 -3 -8 -13 -1 -9 -14 -32 -29 -50 -49 -58 -95 -107
-100 -107 -3 0 -4 18 -1 40 3 22 1 42 -5 45 -5 4 -9 10 -9 15 0 15 61 80 70
75 4 -3 7 3 6 12 0 9 9 22 21 28 13 7 20 15 16 19 -4 3 9 22 27 41 33 34 47
44 36 26z m288 -42 c13 -66 8 -75 -99 -195 -87 -99 -102 -120 -92 -133 10 -14
10 -14 -5 -3 -13 10 -18 10 -24 1 -11 -18 -22 16 -23 66 -1 37 8 50 110 168
60 70 114 127 118 127 5 0 11 -14 15 -31z m-84 -12 c-8 -7 -30 -29 -47 -50
-18 -21 -33 -33 -33 -26 0 20 61 89 78 89 15 -1 15 -2 2 -13z m-932 -307 c-49
-62 -74 -86 -78 -76 -3 8 -3 53 0 98 l5 84 70 85 70 86 3 -93 3 -94 -73 -90z
m259 229 c2 -38 -5 -50 -79 -140 -44 -55 -82 -99 -84 -99 -2 0 -4 12 -4 26 0
14 4 23 9 19 5 -3 13 -1 16 5 4 6 1 9 -6 8 -6 -2 -14 3 -16 10 -3 6 0 12 7 12
6 0 8 4 5 10 -3 5 9 25 27 44 18 19 44 50 58 69 17 24 31 34 44 31 14 -3 17
-1 9 7 -10 10 -8 18 12 39 1 0 1 -19 2 -41z m906 -6 c-3 -7 1 -13 8 -13 7 0 9
-3 6 -6 -7 -7 -37 14 -37 26 0 3 6 7 14 7 8 0 12 -6 9 -14z m-336 -31 c-10
-10 -15 -21 -12 -23 2 -3 -5 -6 -16 -6 -21 -2 -21 -1 -3 20 23 27 37 37 43 32
2 -3 -3 -13 -12 -23z m-316 -107 c2 -22 0 -46 -4 -52 -4 -6 -3 -14 2 -18 6 -3
8 -12 5 -20 -4 -8 -10 -12 -15 -9 -5 3 -9 -1 -9 -8 0 -7 -9 -21 -20 -33 -11
-11 -44 -49 -72 -84 l-53 -65 -8 79 c-7 67 -5 82 8 91 8 6 15 16 15 22 0 6 17
25 38 43 20 17 30 28 22 23 -13 -7 -13 -5 -1 9 7 9 17 14 22 11 5 -3 8 -2 7 3
-2 4 8 23 22 41 27 37 37 30 41 -33z m260 42 c-10 -9 -11 -8 -5 6 3 10 9 15
12 12 3 -3 0 -11 -7 -18z m-33 -28 c-1 -22 -3 -27 -10 -16 -4 8 -5 22 -2 31 9
24 13 19 12 -15z m613 -26 c8 -7 18 -13 21 -13 3 0 48 -26 99 -59 90 -56 94
-60 110 -112 49 -153 52 -168 40 -183 -13 -15 -60 10 -242 127 l-56 36 -28
113 c-15 62 -29 122 -32 132 -5 18 -2 17 33 -4 22 -13 46 -29 55 -37z m-631 3
c0 -7 -11 -21 -25 -30 -14 -9 -23 -21 -20 -26 3 -4 -8 -19 -24 -33 -17 -14
-27 -28 -23 -32 4 -5 3 -6 -3 -3 -5 3 -16 0 -23 -8 -7 -8 -10 -14 -7 -14 3 0
3 -5 -1 -11 -4 -8 -9 -7 -16 2 -8 11 -9 10 -5 -3 3 -9 -1 -24 -9 -35 -9 -10
-13 -12 -9 -3 4 8 -1 6 -9 -4 -9 -12 -16 -14 -16 -7 0 13 50 84 64 90 4 2 16
12 24 22 9 11 23 19 32 19 11 0 12 2 2 8 -9 6 -4 18 20 44 36 39 48 45 48 24z
m35 -81 l5 -50 -107 -119 -108 -120 -7 54 c-3 30 -3 60 0 66 19 33 198 230
204 225 4 -4 10 -29 13 -56z m-685 23 c-1 -13 -1 -25 0 -28 7 -19 7 -40 0 -40
-4 0 -43 -43 -86 -95 -43 -52 -81 -95 -84 -95 -3 0 -4 19 -1 42 4 43 14 59
120 186 24 28 45 52 48 52 2 0 4 -10 3 -22z m1008 -55 c-1 -5 4 -21 11 -38 7
-16 10 -37 8 -47 -3 -10 -1 -18 4 -18 16 0 10 -16 -18 -46 -16 -16 -49 -54
-74 -84 -43 -50 -48 -53 -65 -40 -18 14 -18 14 -5 -3 12 -15 11 -21 -10 -43
-23 -24 -23 -24 -31 -5 -19 52 -15 149 5 114 2 -5 2 -2 0 5 -5 21 16 53 30 46
7 -4 9 -4 5 1 -9 9 9 35 23 35 5 0 9 -5 9 -11 0 -5 -5 -7 -12 -3 -7 4 -8 3 -4
-4 4 -6 13 -9 22 -5 11 4 12 9 3 19 -13 15 -3 37 13 28 6 -4 8 -2 5 3 -8 13
27 46 38 36 4 -5 6 -1 3 7 -2 8 5 24 16 37 20 24 27 28 24 16z m-787 -105 c0
-35 3 -75 5 -90 3 -18 -2 -34 -13 -45 -10 -10 -47 -52 -82 -93 -35 -41 -67
-76 -72 -78 -4 -2 -7 42 -7 98 0 94 2 103 25 128 14 15 29 27 33 27 5 0 12 4
17 9 5 5 3 6 -4 2 -7 -4 -13 -3 -13 2 0 12 45 53 52 47 3 -4 10 8 16 24 6 17
18 31 26 31 13 0 16 -13 17 -62z m219 38 c0 -2 -8 -10 -17 -17 -16 -13 -17
-12 -4 4 13 16 21 21 21 13z m230 -10 c0 -3 -4 -8 -10 -11 -5 -3 -10 -1 -10 4
0 6 5 11 10 11 6 0 10 -2 10 -4z m954 -97 c-15 -16 -31 -29 -34 -29 -4 0 -12
19 -19 43 -7 23 -15 50 -17 60 -5 14 4 12 46 -14 l51 -32 -27 -28z m-1201 13
c-25 -23 -135 -152 -166 -195 -12 -17 -13 -14 -16 24 -1 23 -4 46 -7 51 -3 4
4 17 14 28 l19 21 -3 -28 -4 -28 10 29 c5 16 7 33 5 37 -9 14 23 30 50 25 29
-5 50 9 50 34 0 8 8 14 18 14 11 -1 17 5 17 18 0 10 5 16 10 13 6 -3 11 2 11
12 1 10 4 5 6 -10 3 -19 -2 -34 -14 -45z m167 -11 c-6 -12 -15 -21 -21 -21 -6
0 -3 7 5 16 9 8 16 20 16 26 0 6 3 9 6 6 3 -4 1 -16 -6 -27z m-253 4 c0 -8 -7
-15 -15 -15 -12 0 -12 3 -2 15 7 8 13 15 15 15 1 0 2 -7 2 -15z m1043 -64 c19
-14 39 -26 45 -27 6 -1 25 -10 42 -21 23 -14 29 -23 23 -33 -8 -12 -13 -11
-37 5 -15 11 -40 26 -55 34 -14 7 -40 26 -57 41 -16 15 -32 25 -35 22 -7 -7
-35 17 -48 41 -9 18 -5 17 38 -8 27 -15 65 -39 84 -54z m-930 -4 c0 -51 -2
-54 -90 -151 -49 -55 -86 -104 -84 -108 3 -5 2 -8 -3 -7 -19 3 -25 -2 -15 -14
7 -8 7 -18 2 -27 -8 -13 -11 -13 -22 -1 -8 9 -9 11 -1 7 14 -8 27 10 13 19 -5
3 -10 33 -10 67 l0 60 96 109 c53 60 100 106 105 103 5 -3 9 -29 9 -57z m328
-125 c9 -40 8 -44 -20 -67 -16 -14 -27 -25 -25 -25 3 0 -20 -26 -52 -58 -31
-32 -67 -73 -80 -90 -29 -39 -42 -41 -40 -4 1 37 -9 130 -15 141 -3 5 2 15 11
22 15 12 16 12 10 -4 -4 -10 -3 -16 2 -13 5 3 11 18 14 33 8 34 84 116 99 107
7 -5 8 -2 3 6 -5 8 4 24 26 45 l34 33 12 -42 c6 -22 16 -60 21 -84z m-286 91
c-6 -2 -10 -8 -8 -12 3 -4 -1 -8 -9 -8 -11 0 -12 4 -4 14 6 7 17 13 23 12 7 0
6 -2 -2 -6z m579 -20 c3 -11 -14 -37 -43 -66 -27 -26 -48 -42 -49 -35 -1 7 -4
2 -8 -12 -4 -14 -14 -24 -23 -24 -10 1 -14 -4 -12 -11 3 -7 -6 -24 -20 -38
-14 -14 -22 -29 -18 -33 4 -5 -2 -2 -13 6 -11 8 -17 11 -13 6 4 -5 -6 -22 -22
-40 -17 -17 -30 -34 -30 -38 0 -18 -18 -6 -24 14 -4 16 1 30 17 44 12 12 69
72 127 132 58 61 110 111 116 111 7 1 13 -7 15 -16z m-851 -58 c0 -50 -3 -59
-37 -94 -21 -22 -63 -67 -93 -100 -30 -34 -57 -61 -60 -61 -3 0 -3 26 -1 57 3
49 8 63 35 89 17 16 33 34 35 40 1 5 7 8 12 7 5 -2 8 3 7 10 -2 6 3 11 10 10
6 -2 11 0 10 5 -2 4 5 18 15 32 11 16 17 19 18 10 0 -11 2 -11 6 -2 2 6 8 10
12 8 4 -3 8 1 8 9 0 8 -5 11 -11 8 -6 -4 -5 1 3 10 23 29 31 19 31 -38z m224
16 c3 -5 -2 -15 -12 -22 -15 -12 -16 -12 -5 2 7 9 10 19 6 22 -3 4 -4 7 0 7 3
0 8 -4 11 -9z m651 -63 c4 -29 13 -63 21 -76 8 -12 10 -21 4 -20 -6 2 -75 -64
-153 -147 l-143 -149 -10 79 -10 78 135 144 c74 78 138 143 142 143 4 0 10
-24 14 -52z m-742 -43 c-3 -9 -8 -14 -10 -11 -3 3 -2 9 2 15 9 16 15 13 8 -4z
m-50 -50 c-3 -9 -8 -14 -10 -11 -3 3 -2 9 2 15 9 16 15 13 8 -4z m182 5 c-3
-5 -2 -10 3 -10 6 0 13 -33 17 -72 3 -40 8 -84 11 -98 4 -21 -8 -40 -64 -100
-38 -41 -83 -92 -101 -112 -18 -21 -37 -38 -41 -38 -4 0 -10 53 -12 118 l-5
117 52 55 c28 30 71 76 96 102 43 47 57 58 44 38z m-267 -109 c-13 -15 -26
-24 -29 -18 -4 5 -9 3 -12 -4 -4 -10 -6 -11 -6 -1 -1 7 12 20 29 31 16 10 27
21 22 26 -4 5 -1 5 6 1 9 -6 7 -14 -10 -35z m556 -9 c2 -23 0 -40 -3 -38 -12
8 -43 -23 -35 -35 4 -7 3 -10 -3 -6 -14 9 -66 -51 -57 -65 4 -6 3 -8 -3 -5
-13 8 -109 -90 -105 -106 2 -7 0 -9 -4 -5 -4 4 -13 3 -19 -2 -9 -8 -14 5 -19
51 -6 66 6 104 30 95 8 -3 13 -2 10 3 -8 12 19 33 29 23 5 -4 5 -2 1 5 -3 6
-2 14 4 18 6 3 14 -4 19 -17 6 -13 10 -17 10 -10 1 7 9 16 19 19 21 8 112 102
112 116 0 28 11 -6 14 -41z m301 19 c3 -5 2 -12 -3 -15 -5 -3 -9 1 -9 9 0 17
3 19 12 6z m-281 -170 c6 -47 4 -57 -18 -86 -14 -18 -23 -35 -21 -39 3 -3 2
-4 -2 -1 -4 3 -51 -38 -104 -91 -53 -53 -99 -92 -102 -87 -3 5 -7 39 -8 77 -2
76 -14 58 156 234 88 91 87 91 99 -7z m196 73 c0 -8 -19 -13 -24 -6 -3 5 1 9
9 9 8 0 15 -2 15 -3z m-39 -37 c-10 -9 -11 -8 -5 6 3 10 9 15 12 12 3 -3 0
-11 -7 -18z m-86 -76 c3 -5 2 -12 -3 -15 -5 -3 -9 1 -9 9 0 17 3 19 12 6z
m340 -133 l24 -125 -127 -126 c-146 -146 -133 -148 -154 28 -13 106 -13 111 7
133 35 41 218 222 222 219 1 -2 14 -60 28 -129z m-410 62 c3 -5 1 -10 -4 -10
-6 0 -11 5 -11 10 0 6 2 10 4 10 3 0 8 -4 11 -10z m-45 -40 c-13 -8 -12 -10 4
-10 11 0 17 -3 13 -6 -3 -4 -13 -4 -22 0 -18 6 -11 26 8 26 7 0 6 -4 -3 -10z
m760 0 c0 -5 -4 -10 -9 -10 -6 0 -13 5 -16 10 -3 6 1 10 9 10 9 0 16 -4 16
-10z m48 -29 c3 -8 -1 -12 -9 -9 -7 2 -15 10 -17 17 -3 8 1 12 9 9 7 -2 15
-10 17 -17z m-824 -7 c3 -8 2 -12 -4 -9 -6 3 -10 10 -10 16 0 14 7 11 14 -7z
m871 -32 c-3 -3 -5 0 -5 6 0 6 -7 9 -15 6 -18 -7 -19 2 -2 20 10 12 13 10 20
-7 4 -11 5 -22 2 -25z m-896 25 c8 -10 7 -14 -2 -14 -8 0 -14 6 -14 14 0 7 1
13 2 13 2 0 8 -6 14 -13z m-9 -32 c0 -2 -13 -11 -30 -20 -38 -19 -40 -11 -2 9
31 17 32 18 32 11z m-66 -60 c-3 -8 -11 -13 -17 -12 -7 1 -11 -7 -9 -18 2 -17
1 -17 -8 -5 -7 11 -5 19 11 33 26 21 30 21 23 2z m1013 -17 c-3 -8 -6 -5 -6 6
-1 11 2 17 5 13 3 -3 4 -12 1 -19z m-389 -195 l13 -46 -43 -46 c-24 -25 -49
-49 -55 -54 -38 -24 -102 -91 -96 -100 3 -5 2 -7 -4 -4 -5 3 -28 -12 -52 -34
-23 -22 -46 -37 -51 -34 -5 3 -12 0 -16 -6 -5 -8 -3 -9 6 -4 9 5 11 4 6 -3
-11 -18 -28 -14 -25 6 1 9 0 24 -4 32 -12 32 -17 100 -7 100 5 0 10 6 10 14 0
8 9 22 21 30 12 8 19 18 16 23 -3 4 6 9 19 9 18 2 23 -3 21 -18 -1 -12 5 -23
13 -26 12 -4 13 -3 2 10 -11 13 -9 17 13 22 14 4 25 13 25 21 0 8 3 14 8 14
19 -3 32 2 32 13 0 19 52 68 72 68 11 0 27 13 36 30 9 16 19 30 22 30 3 0 11
-21 18 -47z m372 -163 c0 -5 -2 -10 -4 -10 -3 0 -8 5 -11 10 -3 6 -1 10 4 10
6 0 11 -4 11 -10z m-318 -225 c3 -15 -1 -30 -10 -37 -13 -11 -14 -11 -7 2 5 8
8 25 6 38 -3 30 5 28 11 -3z m-105 -83 c-13 -15 -14 -21 -4 -32 10 -12 9 -12
-6 -1 -16 13 -16 15 -1 32 10 11 19 19 22 19 3 0 -2 -8 -11 -18z m-26 -49 c13
-16 12 -17 -3 -4 -10 7 -18 15 -18 17 0 8 8 3 21 -13z m259 -393 c7 -14 9 -22
5 -18 -5 4 -15 2 -24 -5 -14 -10 -14 -10 -3 4 7 9 9 25 6 35 -9 25 0 16 16
-16z"/>
<path d="M3450 3929 c0 -5 5 -7 10 -4 6 3 10 8 10 11 0 2 -4 4 -10 4 -5 0 -10
-5 -10 -11z"/>
<path d="M3505 3554 c-9 -15 -12 -23 -6 -20 11 7 35 46 28 46 -3 0 -12 -12
-22 -26z"/>
<path d="M3469 3503 c-13 -16 -12 -17 4 -4 16 13 21 21 13 21 -2 0 -10 -8 -17
-17z"/>
<path d="M3434 3458 l-19 -23 23 19 c21 18 27 26 19 26 -2 0 -12 -10 -23 -22z"/>
<path d="M3329 3323 c-13 -16 -12 -17 4 -4 9 7 17 15 17 17 0 8 -8 3 -21 -13z"/>
<path d="M3269 3243 c-13 -16 -12 -17 4 -4 16 13 21 21 13 21 -2 0 -10 -8 -17
-17z"/>
<path d="M4062 3280 c-12 -10 -18 -21 -14 -24 10 -6 48 31 41 38 -2 2 -14 -4
-27 -14z"/>
<path d="M3909 3153 c-1 -5 -1 -12 0 -17 3 -13 -20 -36 -30 -30 -5 3 -9 0 -9
-5 0 -17 18 -13 39 10 11 12 17 27 14 35 -6 15 -12 18 -14 7z"/>
<path d="M3725 2950 c-3 -5 -3 -15 0 -20 8 -13 -16 -38 -32 -33 -6 2 -15 -1
-19 -8 -4 -8 -3 -9 5 -5 6 4 20 2 29 -5 9 -7 14 -9 9 -4 -4 4 3 19 15 32 12
13 16 23 10 23 -7 0 -12 5 -12 11 0 5 5 7 12 3 7 -4 8 -3 4 4 -9 15 -13 15
-21 2z"/>
<path d="M3945 2650 c-3 -5 -1 -10 4 -10 6 0 11 5 11 10 0 6 -2 10 -4 10 -3 0
-8 -4 -11 -10z"/>
<path d="M3786 2593 c-6 -14 -5 -15 5 -6 7 7 10 15 7 18 -3 3 -9 -2 -12 -12z"/>
<path d="M3766 2517 c3 -10 9 -15 12 -12 3 3 0 11 -7 18 -10 9 -11 8 -5 -6z"/>
<path d="M3676 2251 c-4 -6 -2 -11 5 -11 6 0 9 -8 6 -20 -3 -11 0 -23 6 -27 7
-3 9 -2 4 2 -4 5 0 19 9 33 9 13 11 21 4 17 -7 -4 -16 -2 -20 5 -5 9 -9 9 -14
1z"/>
<path d="M4080 4484 c0 -8 4 -13 9 -9 6 3 14 -2 19 -12 12 -24 37 -125 34
-140 -3 -13 237 -179 251 -175 5 1 6 -8 2 -20 -4 -16 -3 -19 3 -10 7 11 34 -3
123 -62 l114 -76 24 -67 c14 -37 26 -63 28 -57 2 5 -21 75 -51 155 l-54 144
-163 112 c-90 61 -203 138 -251 172 -59 40 -88 55 -88 45z m280 -225 c0 -6 4
-8 9 -5 5 3 8 -4 8 -17 -1 -12 2 -34 6 -48 6 -25 -2 -21 -99 44 -112 75 -118
82 -129 141 l-8 38 107 -71 c58 -39 106 -76 106 -82z m210 -179 c7 -17 10 -33
7 -36 -3 -3 -43 20 -90 51 -74 49 -86 62 -95 95 l-10 39 88 -59 c60 -40 91
-68 100 -90z"/>
<path d="M4091 4444 c0 -11 3 -14 6 -6 3 7 2 16 -1 19 -3 4 -6 -2 -5 -13z"/>
<path d="M4101 4404 c0 -11 3 -14 6 -6 3 7 2 16 -1 19 -3 4 -6 -2 -5 -13z"/>
<path d="M4111 4364 c0 -11 3 -14 6 -6 3 7 2 16 -1 19 -3 4 -6 -2 -5 -13z"/>
<path d="M4121 4324 c0 -11 3 -14 6 -6 3 7 2 16 -1 19 -3 4 -6 -2 -5 -13z"/>
<path d="M4131 4284 c0 -11 3 -14 6 -6 3 7 2 16 -1 19 -3 4 -6 -2 -5 -13z"/>
<path d="M4141 4244 c0 -11 3 -14 6 -6 3 7 2 16 -1 19 -3 4 -6 -2 -5 -13z"/>
<path d="M4410 4056 c0 -8 4 -17 9 -20 5 -4 7 3 4 14 -6 23 -13 26 -13 6z"/>
<path d="M4250 3896 c0 -2 8 -10 18 -17 15 -13 16 -12 3 4 -13 16 -21 21 -21
13z"/>
<path d="M4741 3833 c0 -4 53 -45 117 -90 64 -45 136 -96 160 -113 26 -19 42
-27 42 -18 0 7 -69 60 -152 118 -164 113 -168 116 -167 103z"/>
<path d="M4530 3675 c0 -5 5 -17 10 -25 5 -8 10 -10 10 -5 0 6 -5 17 -10 25
-5 8 -10 11 -10 5z"/>
<path d="M4630 3646 c0 -2 14 -14 30 -26 17 -12 30 -19 30 -16 0 2 -13 14 -30
26 -16 12 -30 19 -30 16z"/>
<path d="M4730 3576 c0 -3 9 -10 20 -16 11 -6 20 -8 20 -6 0 3 -9 10 -20 16
-11 6 -20 8 -20 6z"/>
<path d="M4401 3422 c66 -42 69 -44 69 -39 0 7 -95 67 -105 67 -5 0 11 -13 36
-28z"/>
<path d="M4405 3330 c3 -5 8 -10 11 -10 2 0 4 5 4 10 0 6 -5 10 -11 10 -5 0
-7 -4 -4 -10z"/>
<path d="M3120 2592 c-19 -26 -91 -117 -159 -202 -170 -213 -159 -198 -139
-180 31 30 348 416 348 424 0 16 -19 1 -50 -42z"/>
<path d="M3360 2305 c-7 -9 -11 -17 -9 -20 3 -2 10 5 17 15 14 24 10 26 -8 5z"/>
<path d="M2950 2115 c-19 -20 -22 -30 -14 -42 6 -9 16 -19 22 -21 13 -4 25 36
20 68 -3 22 -3 22 -28 -5z"/>
<path d="M4710 2071 c0 -6 4 -13 10 -16 6 -3 7 1 4 9 -7 18 -14 21 -14 7z"/>
<path d="M3151 2017 c-13 -21 -12 -21 5 -5 10 10 16 20 13 22 -3 3 -11 -5 -18
-17z"/>
<path d="M3345 1763 l-38 -48 43 42 c24 23 42 45 38 48 -3 3 -22 -16 -43 -42z"/>
<path d="M3913 1323 c0 -9 4 -10 14 -2 7 6 13 12 13 14 0 1 -6 2 -13 2 -8 0
-14 -6 -14 -14z"/>
<path d="M4170 876 c0 -2 7 -9 15 -16 13 -11 14 -10 9 4 -5 14 -24 23 -24 12z"/>
<path d="M4277 802 c-18 -19 -14 -32 10 -32 8 0 12 10 11 25 -3 30 -1 29 -21
7z"/>
</g>
</svg>
